# xmcd
#
# Track frame offsets:
# 150
# 11665
# 22605
# 36742
# 48382
# 59585
# 79077
# 92775
# 105127
# 116107
# 130627
# 145617
# 160257
# 175720
# 187560
# 204675
# 217110
# 227420
# 241255
# 258657
#
# Disc length: 3613 seconds
#
#
# Revision: 0
# Processed by: cddbd v1.5.2PL0 Copyright (c) Steve Scherf et al.
# Submitted via: FreeRIP 2.96 
#
DISCID=050e1b14
DTITLE=Various Artist - Country Favourites
DYEAR=1900
DGENRE=Country
TTITLE0=Willie Nelson-The last letter
TTITLE1=Johnny Cash-I love you because
TTITLE2=Trucks-Slow it goes up
TTITLE3=Doc Watson-Tom Dooley
TTITLE4=Waylon Jennings-Big Mamou
TTITLE5=The Bellamy Brothers-If I said you have a beautiful body
TTITLE6=Freddie Fender-Mexican rose
TTITLE7=Kenny Rogers-Reuben James
TTITLE8=Patsy Cline-I cried all the way to the altar
TTITLE9=Mel Tillis-Detroid City
TTITLE10=Lynn Anderson-We´ve only just begun
TTITLE11=Hoyt Axton-Evangelina
TTITLE12=Busted-I´m not the lonley one
TTITLE13=Tex Williams-Smoke, smoke, smoke that cigarette
TTITLE14=Little Creek Band-On the highway to Texas
TTITLE15=Johnny Paycheck-I´m not looking back anymore
TTITLE16=Dolly Parton-Release me
TTITLE17=Margo-I will love again
TTITLE18=Gene Watson-Carmen
TTITLE19=Billy Jo Spears-Sunshine
EXTD=
EXTT0=
EXTT1=
EXTT2=
EXTT3=
EXTT4=
EXTT5=
EXTT6=
EXTT7=
EXTT8=
EXTT9=
EXTT10=
EXTT11=
EXTT12=
EXTT13=
EXTT14=
EXTT15=
EXTT16=
EXTT17=
EXTT18=
EXTT19=
PLAYORDER=
